<?xml version="1.0" standalone="no"?>
<!DOCTYPE svg PUBLIC "-//W3C//DTD SVG 20010904//EN"
 "http://www.w3.org/TR/2001/REC-SVG-20010904/DTD/svg10.dtd">
<svg version="1.0" xmlns="http://www.w3.org/2000/svg"
 width="500.000000pt" height="500.000000pt" viewBox="0 0 500.000000 500.000000"
 preserveAspectRatio="xMidYMid meet">
<metadata>
Created by potrace 1.11, written by Peter Selinger 2001-2013
</metadata>
<g transform="translate(0.000000,500.000000) scale(0.100000,-0.100000)"
fill="#000000" stroke="none">
<path d="M1745 4808 c-11 -7 -39 -15 -62 -18 -34 -5 -40 -4 -35 8 4 12 1 14
-14 7 -17 -8 -35 -10 -94 -14 -12 0 -25 -12 -31 -28 -5 -14 -21 -37 -35 -50
-25 -23 -40 -30 -30 -15 2 4 1 14 -4 21 -6 11 -12 11 -31 -3 -13 -9 -19 -16
-14 -16 6 0 -5 -10 -22 -21 -18 -12 -33 -27 -33 -35 0 -17 -27 -19 -32 -2 -3
7 -12 9 -24 4 -10 -4 -21 -7 -23 -6 -2 1 -8 -6 -13 -15 -7 -12 -17 -15 -38
-10 -41 9 -63 -6 -129 -90 -40 -50 -65 -92 -76 -130 -8 -31 -20 -53 -25 -50
-5 3 -7 12 -4 20 9 23 -24 30 -46 10 -11 -10 -20 -24 -20 -32 0 -7 -4 -13 -9
-13 -6 0 -11 -14 -13 -32 -2 -27 -8 -33 -36 -40 -19 -5 -36 -18 -42 -31 -4
-12 -20 -34 -34 -48 -28 -31 -59 -126 -57 -182 0 -25 -6 -44 -20 -58 -13 -13
-18 -27 -14 -40 4 -10 3 -19 -2 -19 -30 0 -47 -160 -28 -260 4 -19 8 -60 9
-90 3 -63 14 -95 47 -129 12 -13 23 -31 24 -40 7 -52 19 -102 26 -107 4 -2 4
-16 -1 -30 -19 -49 27 -159 73 -177 10 -4 16 -11 12 -16 -3 -5 0 -13 5 -16 6
-4 15 -17 20 -30 7 -18 14 -22 31 -18 20 5 21 3 15 -20 -7 -29 17 -77 38 -77
11 0 36 -65 36 -93 0 -18 52 -67 72 -67 9 0 24 -17 33 -37 10 -21 33 -56 51
-78 46 -57 101 -141 135 -205 16 -30 33 -62 38 -70 6 -8 23 -45 40 -82 29 -64
37 -88 48 -153 3 -16 10 -35 15 -41 5 -7 10 -29 13 -51 2 -22 18 -74 34 -116
17 -43 33 -100 35 -127 3 -28 12 -73 21 -101 9 -28 15 -53 12 -55 -3 -3 -1
-19 3 -35 9 -32 -5 -89 -22 -89 -6 0 -7 -7 -4 -17 8 -19 -10 -79 -31 -102 -8
-9 -30 -40 -49 -70 -18 -30 -41 -56 -50 -57 -18 -3 -39 -20 -39 -33 0 -4 -33
-40 -74 -78 -70 -67 -111 -132 -111 -174 0 -10 -5 -19 -11 -19 -5 0 -8 -4 -5
-9 3 -5 -2 -12 -11 -16 -10 -3 -19 -1 -21 4 -7 20 -44 11 -71 -18 -14 -15 -37
-31 -49 -35 -13 -4 -45 -26 -71 -49 -105 -91 -145 -117 -212 -138 -38 -12 -74
-28 -80 -35 -6 -8 -18 -14 -25 -14 -14 0 -19 -23 -15 -67 2 -20 -3 -24 -24
-23 -3 1 -17 -8 -32 -20 -28 -22 -63 -27 -63 -9 0 8 -5 8 -15 -1 -9 -8 -15 -9
-15 -2 0 6 4 14 10 17 20 12 9 23 -21 21 -29 -1 -30 -3 -24 -34 4 -24 0 -42
-14 -66 -12 -18 -21 -47 -21 -63 0 -27 4 -30 51 -41 28 -7 55 -10 59 -7 5 3
43 6 85 7 41 0 78 5 81 10 3 4 18 1 33 -8 27 -16 29 -15 56 10 19 18 32 23 39
16 5 -5 18 -10 28 -10 10 0 18 -4 18 -10 0 -16 27 -12 34 5 8 22 36 18 36 -5
0 -24 9 -26 24 -5 9 13 15 13 36 2 28 -15 132 -12 162 4 22 12 68 -5 89 -33
14 -18 18 -19 40 -7 13 8 24 21 24 29 0 11 10 14 40 12 60 -4 70 -9 55 -27 -7
-8 -9 -16 -4 -16 5 -1 19 -3 32 -4 12 -1 31 -10 41 -19 25 -22 43 -20 64 10
16 21 16 25 4 22 -13 -2 -24 8 -14 13 7 5 47 -14 47 -22 0 -5 9 -9 20 -9 12 0
20 7 20 16 0 14 3 14 16 3 13 -10 17 -10 25 2 5 8 9 18 9 24 0 5 4 5 10 -1 12
-12 3 -44 -11 -44 -5 0 -9 -9 -9 -19 0 -17 7 -19 56 -17 35 2 59 7 65 17 6 9
12 10 17 4 4 -5 16 -11 27 -12 76 -7 105 -5 119 6 9 8 16 10 16 5 0 -5 7 0 15
10 8 11 15 17 15 13 0 -4 9 -3 21 3 15 9 25 8 42 -3 17 -11 41 -13 112 -7 50
4 100 6 113 5 12 -1 22 3 23 9 0 6 5 0 11 -14 l10 -25 9 23 c5 13 6 28 3 33
-3 5 1 16 9 24 13 12 16 12 22 -8 10 -27 12 -38 14 -55 0 -7 6 -10 11 -7 6 4
9 12 8 18 -2 7 1 13 7 14 5 2 10 -5 11 -15 2 -48 4 -50 25 -45 15 4 27 0 36
-13 13 -17 14 -17 29 5 13 18 23 22 46 17 20 -4 30 -1 35 10 5 13 7 13 23 -1
22 -20 60 -28 60 -12 0 7 9 1 19 -12 17 -22 26 -24 73 -22 87 5 159 5 233 -1
73 -6 165 0 163 11 -3 28 3 33 21 17 11 -10 25 -15 31 -11 21 13 69 14 65 2
-9 -24 13 -38 61 -40 45 -2 49 0 47 21 -3 24 14 31 23 9 6 -17 77 -16 97 2 13
10 21 9 43 -6 28 -18 134 -28 134 -12 0 11 128 4 160 -9 38 -14 259 -11 295 4
17 7 25 13 19 14 -7 0 -15 7 -18 16 -5 12 -2 15 10 10 8 -3 24 -1 35 4 13 7
19 7 19 0 0 -15 30 -12 36 4 11 30 11 52 -2 72 -8 11 -15 37 -16 58 -2 26 -11
47 -28 62 -102 96 -135 124 -146 124 -6 0 -29 14 -50 30 -22 17 -83 65 -136
107 -54 42 -98 80 -98 84 0 5 -7 9 -14 9 -8 0 -28 11 -43 25 -15 14 -32 28
-38 32 -5 5 -30 24 -55 43 -54 42 -59 47 -66 82 -4 15 -15 35 -25 44 -11 9
-19 21 -19 27 0 10 -48 69 -94 117 -29 30 -76 122 -76 149 0 11 -5 21 -11 23
-7 2 -5 17 7 41 17 35 17 43 3 112 -12 53 -13 77 -5 85 8 8 8 13 0 18 -33 21
-40 80 -8 68 11 -4 13 1 8 19 -3 14 -2 25 3 25 17 0 30 56 27 123 -1 37 2 67
7 67 4 0 6 -7 3 -15 -4 -8 -1 -15 5 -15 7 0 17 14 22 30 6 17 15 30 20 30 5 0
9 6 9 14 0 8 10 18 23 22 12 4 35 20 51 35 18 18 37 27 47 24 10 -4 22 4 33
19 12 19 25 25 49 25 17 0 43 2 57 6 14 3 46 6 72 6 26 0 50 4 53 9 3 6 17 10
30 10 13 0 27 6 31 12 13 21 15 181 3 221 -10 29 -9 43 0 63 10 23 8 34 -15
81 -16 33 -39 62 -57 74 -31 18 -32 18 -43 -4 -12 -22 -12 -22 -19 6 -4 15 -5
31 -2 34 8 7 -21 63 -32 63 -8 0 -22 32 -25 55 -1 6 -25 20 -54 33 l-54 23
-42 -20 c-23 -11 -57 -24 -76 -27 -19 -4 -39 -10 -45 -14 -20 -14 -111 -39
-150 -42 -57 -3 -68 7 -59 51 4 20 6 45 5 56 -1 20 46 123 64 138 6 5 3 7 -7
3 -22 -7 -25 19 -3 28 8 3 15 11 15 18 0 8 12 25 28 39 15 14 43 44 62 67 19
23 39 42 45 42 27 1 85 79 85 114 0 52 -71 129 -101 110 -5 -3 -9 -1 -9 5 0 5
5 13 10 16 6 3 10 18 10 32 0 27 34 77 53 78 24 2 120 54 148 81 16 15 29 24
29 19 0 -5 18 11 40 35 45 49 46 56 25 96 -8 16 -15 37 -15 46 0 10 -12 19
-32 23 -18 4 -48 16 -66 26 -18 10 -42 19 -54 19 -11 0 -36 7 -56 16 -21 9
-52 22 -70 30 -18 8 -44 14 -58 14 -21 0 -94 42 -144 83 -15 11 -134 191 -141
212 -2 6 -23 45 -47 88 -45 80 -130 182 -161 192 -10 3 -24 17 -31 31 -8 13
-20 22 -27 20 -7 -3 -13 0 -13 6 0 15 -80 88 -96 88 -7 0 -25 11 -41 24 -40
33 -128 76 -157 76 -14 0 -28 5 -32 11 -3 6 -15 9 -25 6 -10 -3 -22 -1 -25 4
-3 5 -16 9 -28 9 -13 0 -37 7 -52 15 -16 8 -38 15 -50 15 -11 0 -25 5 -30 10
-6 6 -36 12 -68 15 -32 3 -62 7 -66 10 -4 3 -11 -2 -14 -11 -5 -14 -9 -12 -25
7 -17 21 -23 22 -40 12 -17 -11 -24 -9 -47 12 -31 29 -29 28 -55 15 -14 -8
-27 -7 -48 5 -35 18 -59 19 -86 3z m229 -89 c-14 -23 -60 1 -51 25 6 15 9 15
32 0 14 -9 22 -20 19 -25z m-124 17 c0 -16 -27 -29 -42 -20 -7 5 14 23 40 33
1 1 2 -5 2 -13z m58 -134 c2 -7 -2 -10 -12 -6 -9 3 -16 11 -16 16 0 13 23 5
28 -10z m-285 1 c3 -5 1 -18 -4 -30 -5 -15 -14 -20 -28 -16 -26 7 -27 28 -3
42 21 13 29 13 35 4z m-73 -44 c0 -21 -16 -24 -40 -9 -13 9 -12 12 4 25 22 17
36 11 36 -16z m758 -51 c19 -19 14 -26 -13 -20 -25 4 -31 13 -18 25 9 10 17 9
31 -5z m-628 -103 c-8 -9 -8 -15 -2 -15 6 0 10 -9 9 -20 -1 -11 -7 -20 -14
-20 -7 0 -13 -6 -13 -12 0 -9 -3 -9 -8 -2 -4 6 -15 13 -24 17 -27 10 -22 28 6
21 13 -3 27 -1 30 5 4 6 2 11 -3 11 -6 0 -3 9 6 20 9 11 19 17 21 15 3 -3 -1
-11 -8 -20z m549 -103 c18 -14 22 -23 14 -36 -8 -15 -12 -15 -43 6 -40 28 -55
50 -47 71 5 14 9 14 29 -3 13 -11 34 -28 47 -38z m-614 -151 c-11 -10 -35 11
-35 31 l0 23 20 -25 c10 -14 17 -26 15 -29z m-625 -11 c0 -5 -2 -10 -4 -10 -3
0 -8 5 -11 10 -3 6 -1 10 4 10 6 0 11 -4 11 -10z m-9 -46 c11 -14 10 -15 -11
-12 -13 1 -25 9 -28 16 -5 17 23 15 39 -4z m-71 -83 c0 -11 -4 -22 -9 -25 -4
-3 -11 -24 -15 -46 -6 -40 -19 -70 -43 -100 -6 -8 -12 -19 -12 -25 0 -5 -3
-11 -8 -12 -17 -6 -8 42 18 98 15 30 32 72 38 92 13 40 31 50 31 18z m715 -19
c-12 -12 -35 -10 -35 3 0 8 7 11 20 8 12 -3 18 -8 15 -11z m1210 -124 c-8 -13
-34 -39 -57 -58 -23 -19 -62 -54 -86 -77 -25 -24 -50 -43 -55 -43 -6 0 -33
-17 -61 -38 -56 -41 -165 -98 -210 -108 -37 -9 -31 3 44 83 100 108 197 175
320 223 30 12 64 26 75 30 37 16 47 12 30 -12z m-2025 -122 c-14 -14 -22 -2
-14 18 5 14 9 15 15 4 4 -7 4 -17 -1 -22z m2010 -120 c0 -11 -19 -15 -25 -6
-3 5 1 10 9 10 9 0 16 -2 16 -4z m170 -383 c0 -19 -3 -24 -10 -17 -6 6 -8 18
-4 27 9 24 14 21 14 -10z m-703 -35 c-3 -7 -5 -2 -5 12 0 14 2 19 5 13 2 -7 2
-19 0 -25z m-443 -360 c-4 -13 -8 -39 -9 -58 -5 -75 -6 -77 -20 -45 -15 36
-27 110 -18 119 4 3 17 6 30 6 21 0 23 -3 17 -22z m-300 -54 c3 -9 6 -25 6
-37 0 -22 -1 -22 -19 2 -10 14 -17 31 -14 38 7 18 20 16 27 -3z m286 -139 c0
-8 -4 -15 -10 -15 -5 0 -10 7 -10 15 0 8 5 15 10 15 6 0 10 -7 10 -15z m50
-596 c0 -6 -4 -7 -10 -4 -5 3 -10 11 -10 16 0 6 5 7 10 4 6 -3 10 -11 10 -16z
m-40 -491 c0 -7 -12 -22 -27 -32 l-26 -19 19 31 c19 33 34 42 34 20z m490 -64
c0 -8 -4 -12 -10 -9 -5 3 -10 10 -10 16 0 5 5 9 10 9 6 0 10 -7 10 -16z m240
-464 c0 -11 -4 -20 -9 -20 -5 0 -7 9 -4 20 3 11 7 20 9 20 2 0 4 -9 4 -20z
m439 -201 c19 -11 42 -18 53 -16 20 6 32 -8 34 -38 2 -40 4 -45 19 -45 10 0
15 -10 15 -28 0 -15 4 -32 9 -37 5 -6 12 -20 16 -32 5 -17 2 -23 -9 -23 -20 0
-21 -19 -2 -26 14 -5 32 -66 27 -92 -1 -8 10 -25 24 -38 l26 -24 -22 -9 c-15
-5 -32 -3 -48 6 -14 7 -33 13 -42 13 -33 0 -65 79 -39 95 6 4 7 12 3 18 -4 7
-6 20 -5 30 2 11 -3 17 -16 17 -15 0 -18 -5 -15 -24 7 -33 -10 -40 -24 -10 -6
13 -7 24 -2 24 20 0 7 19 -20 28 -28 10 -32 7 -103 -70 -40 -43 -75 -85 -77
-91 -8 -23 -60 -67 -78 -67 -11 0 -37 20 -59 43 -21 24 -45 46 -52 48 -18 6 2
59 23 59 8 0 15 5 15 10 0 6 6 10 14 10 9 0 16 12 18 28 3 24 7 27 33 24 27
-3 28 -2 12 10 -12 9 -16 20 -11 31 5 14 9 15 20 6 11 -9 14 -8 14 3 0 15 63
88 75 88 4 0 4 -7 1 -16 -4 -10 -1 -14 6 -12 7 3 17 18 22 34 4 16 12 36 17
44 36 58 46 70 62 70 9 0 17 6 18 13 1 6 4 2 7 -11 4 -12 22 -32 41 -43z
m-2389 -285 c0 -8 -5 -12 -10 -9 -6 4 -8 11 -5 16 9 14 15 11 15 -7z m1960
-61 c0 -5 -29 -9 -65 -9 -36 -1 -65 3 -65 7 0 5 29 9 65 9 36 0 65 -3 65 -7z
m-267 -10 c-13 -2 -33 -2 -45 0 -13 2 -3 4 22 4 25 0 35 -2 23 -4z m-545 -145
c19 -19 14 -30 -10 -26 -13 2 -24 11 -26 21 -4 20 18 23 36 5z m-63 -28 c-3
-5 -11 -10 -16 -10 -6 0 -7 5 -4 10 3 6 11 10 16 10 6 0 7 -4 4 -10z"/>
<path d="M4319 3783 c-1 -4 -1 -11 0 -15 0 -5 -5 -8 -12 -8 -8 0 -19 -11 -25
-24 -7 -16 -22 -26 -46 -30 -56 -11 -108 -36 -113 -55 -2 -10 -19 -23 -36 -30
-18 -6 -53 -31 -80 -55 l-48 -43 11 -49 c17 -78 22 -81 66 -48 22 16 41 32 42
37 2 4 10 7 17 7 7 0 24 9 37 20 38 33 90 67 147 97 44 23 58 37 77 78 27 57
30 75 10 75 -8 0 -13 10 -12 22 1 21 -32 41 -35 21z"/>
<path d="M4465 3293 c-27 -8 -66 -16 -85 -18 -19 -2 -68 -10 -107 -18 -40 -8
-73 -12 -73 -10 0 2 -13 -3 -30 -12 -37 -19 -38 -28 -1 -54 22 -16 35 -19 53
-12 14 5 31 5 40 0 16 -9 51 -7 98 5 14 4 47 2 73 -3 38 -7 50 -6 54 5 3 9 21
14 53 14 46 0 47 1 48 31 1 34 12 52 19 32 3 -7 9 -13 14 -13 14 0 11 23 -7
48 -12 17 -19 20 -29 12 -9 -7 -21 -7 -39 0 -15 5 -28 9 -29 9 -1 -1 -24 -8
-52 -16z"/>
<path d="M4188 2899 c-10 -5 -18 -20 -18 -33 0 -18 9 -27 43 -40 23 -9 51 -16
60 -16 10 0 28 -5 40 -12 12 -7 47 -15 77 -19 30 -5 62 -10 70 -12 48 -12 111
-18 129 -12 31 10 27 50 -6 72 -16 10 -32 23 -38 30 -6 7 -45 14 -95 16 -47 2
-94 6 -105 9 -11 3 -40 9 -65 13 -25 3 -52 8 -60 10 -8 2 -23 0 -32 -6z"/>
</g>
</svg>
